<svg xmlns="http://www.w3.org/2000/svg" viewBox="0 0 512 512" width="100%" height="100%">
  <defs>
    <linearGradient id="bg" x1="0%" y1="0%" x2="100%" y2="100%">
      <stop offset="0%" stop-color="#0F172A" />
      <stop offset="100%" stop-color="#1E293B" />
    </linearGradient>
    
    <linearGradient id="carBody" x1="0%" y1="0%" x2="100%" y2="0%">
      <stop offset="0%" stop-color="#38BDF8" />
      <stop offset="100%" stop-color="#818CF8" />
    </linearGradient>
  </defs>

  <rect width="512" height="512" rx="112" fill="url(#bg)" />

  <ellipse cx="275" cy="365" rx="160" ry="12" fill="#000000" opacity="0.4" />

  <path d="M 120 320
           L 120 270
           C 120 240, 140 230, 160 220
           L 210 170
           C 230 150, 280 150, 310 170
           L 390 240
           C 420 260, 430 280, 430 320
           Z" 
        fill="url(#carBody)" />

  <path d="M 210 230
           L 230 185
           C 245 170, 275 170, 290 185
           L 350 230
           Z" 
        fill="#0F172A" />

  <circle cx="180" cy="320" r="40" fill="#0F172A" />
  <circle cx="180" cy="320" r="16" fill="#38BDF8" />

  <circle cx="370" cy="320" r="40" fill="#0F172A" />
  <circle cx="370" cy="320" r="16" fill="#818CF8" />
</svg>
